PathFileType	4	(X/Y/Z)	/Users/visionmauri/1_5_1_f_1_Sports2D/1_5_1_f_1_Sports2D_px_person00.trc
DataRate	CameraRate	NumFrames	NumMarkers	Units	OrigDataRate	OrigDataStartFrame	OrigNumFrames
30.0	30.0	9	22	m	30.0	162	432
Frame#	Time	Hip			RHip			RKnee			RAnkle			RBigToe			RSmallToe			RHeel			LHip			LKnee			LAnkle			LBigToe			LSmallToe			LHeel			Neck			Head			Nose			RShoulder			RElbow			RWrist			LShoulder			LElbow			LWrist			
		X1	Y1	Z1	X2	Y2	Z2	X3	Y3	Z3	X4	Y4	Z4	X5	Y5	Z5	X6	Y6	Z6	X7	Y7	Z7	X8	Y8	Z8	X9	Y9	Z9	X10	Y10	Z10	X11	Y11	Z11	X12	Y12	Z12	X13	Y13	Z13	X14	Y14	Z14	X15	Y15	Z15	X16	Y16	Z16	X17	Y17	Z17	X18	Y18	Z18	X19	Y19	Z19	X20	Y20	Z20	X21	Y21	Z21	X22	Y22	Z22
162	5.412529002320186	571.7381713211541	815.6941123290895	0.0	623.2714288905249	813.2435183989768	0.0	627.1972721667458	1006.424674439001	0.0	627.9089904738845	1173.0777017712917	0.0	614.0809124780787	1248.4515821556065	0.0	647.4043861308281	1243.1777695687285	0.0	619.5888992661698	1206.6761423215696	0.0	525.820429679194	820.545720323861	0.0	533.2526729519257	1005.6666165305138	0.0	529.1074452560414	1200.5104611690085	0.0	543.1933473898183	1240.5302202953465	0.0	509.4535419194725	1244.2334220040295	0.0	531.5463575906207	1241.465098786587	0.0	547.100178430319	560.221834277493	0.0	511.502878563785	459.07849667634247	0.0	515.5073123313515	517.8714181822108	0.0	638.9913281193639	577.1577923360796	0.0	713.3836352297043	691.3190835669888	0.0	716.4345532861342	809.4625465109881	0.0	466.11468955494405	593.1251629484133	0.0	429.9365402908085	732.5569208813334	0.0	445.9719864768143	749.6447802963958	0.0
163	5.445939675174015	574.7458382926593	816.131614802716	0.0	625.9960455981732	813.6165730944573	0.0	625.4481977079511	1006.028681932146	0.0	633.0514954118717	1178.9042869628793	0.0	617.7026618964369	1239.394700588257	0.0	651.1577154437499	1238.4065146380785	0.0	627.2760013857136	1213.2882488074717	0.0	528.7604399933184	821.1727589616331	0.0	533.80854872521	1006.8633058505652	0.0	529.7444671430019	1196.9921707269855	0.0	539.9157754069092	1240.2243373509125	0.0	509.1991774668683	1244.0475146006913	0.0	531.9625695409195	1236.580902180048	0.0	546.9194121563842	560.6522749694544	0.0	504.44259768646106	459.43732277067954	0.0	511.29461798993134	519.8900250788096	0.0	637.3728065134663	576.7054057290997	0.0	717.0369062467582	687.0611627873074	0.0	717.2841571873549	803.2364124597793	0.0	467.7747191721158	593.4178916613008	0.0	432.75936453509934	732.2178804444367	0.0	445.1813214697287	747.2872580400814	0.0
164	5.479350348027842	577.9012434255217	816.8423594000755	0.0	628.9097078961578	815.6380929672475	0.0	624.2490166234293	1007.5342132463957	0.0	638.167227506126	1185.0629547690207	0.0	617.5280546561842	1231.1270472241815	0.0	652.238315793843	1233.240924397295	0.0	636.0149423985677	1218.5491742882728	0.0	531.8175035456995	822.5117864539491	0.0	534.8571398741584	1006.9432614037266	0.0	529.9691746385786	1195.4690539362525	0.0	534.6380956555462	1237.6487051638119	0.0	507.65004241037946	1242.96931173124	0.0	532.9704362640838	1232.7119023861605	0.0	546.9394449047204	561.0703026367546	0.0	497.1816106879716	460.55266545741387	0.0	506.9438420366855	523.5139408492473	0.0	637.1179157036796	576.3335052981465	0.0	721.6104522112682	683.2932740491075	0.0	717.3827742762379	796.7146982241732	0.0	470.4201796229123	593.7829580892735	0.0	436.8446493554564	732.0521145073152	0.0	445.8258123080099	750.5649649875496	0.0
165	5.512761020881671	580.7268906067001	817.3790368575781	0.0	631.2666708642673	818.1483136566252	0.0	624.0703833206093	1011.0865151563058	0.0	642.2976368211986	1191.0300817940126	0.0	614.7169086130635	1223.609472263303	0.0	652.2226511614407	1226.7944921178212	0.0	643.8412728474239	1221.8869635290669	0.0	534.9894471844381	823.9187786701359	0.0	535.9930316318699	1007.2542977403228	0.0	530.1383794687385	1195.7913693002063	0.0	530.1390155244981	1234.1766657391624	0.0	505.9447419262285	1241.0715329822651	0.0	534.4744948713462	1230.974863129748	0.0	547.0157307196124	561.4654826847416	0.0	492.50091569204153	462.41222776875867	0.0	503.8775506201846	527.2808256790073	0.0	637.3837812465334	576.1473465827517	0.0	726.272666560293	679.6373482782408	0.0	715.2269046169781	790.311000938226	0.0	473.68289432270245	594.2328786383539	0.0	441.4610920341123	732.3429996440121	0.0	448.1169808223231	754.8354112892026	0.0
166	5.5461716937354995	583.2872086572637	816.9901004064511	0.0	633.3658556006486	819.3009412026634	0.0	624.5432097706154	1014.5552414078128	0.0	644.5880681046548	1195.6930236382534	0.0	612.9779765798041	1219.5641297054497	0.0	653.1864515203449	1223.3569591809985	0.0	648.1000718438358	1224.098013550543	0.0	538.0349102590076	824.1332855220667	0.0	536.7845094263315	1006.8981964982825	0.0	530.6162591359653	1196.1999218218955	0.0	528.0394473533812	1231.3167508791762	0.0	504.7699090971543	1239.5014196633922	0.0	536.2016080457173	1234.0185465007999	0.0	548.098679807978	562.0402787349776	0.0	490.48134977376066	464.640281299761	0.0	501.9843075457662	531.4581967822355	0.0	638.5196689943461	576.04696469454	0.0	730.0626541673447	676.6306356253812	0.0	710.5632777727282	784.3019917794134	0.0	477.1347035469688	594.5215636493128	0.0	446.81437933795075	732.1563669670061	0.0	451.6553009486497	756.5958874597397	0.0
167	5.579582366589328	585.6930974195561	815.4343897842211	0.0	635.6823414400848	818.7526352475678	0.0	625.5924308083586	1016.3155696859088	0.0	645.0871922867634	1197.966851908467	0.0	613.7150071463784	1218.5732810255122	0.0	654.5644108466801	1224.0170177367902	0.0	648.6049317922754	1225.2496274834587	0.0	540.6418152425381	822.794273276817	0.0	537.4803451528204	1003.7650808218522	0.0	531.5875077357445	1194.7832242453392	0.0	527.9326385352431	1225.9369512646701	0.0	504.1191435541608	1237.7428010424053	0.0	537.4648361007204	1237.634250453152	0.0	550.9535036091213	562.5890901962932	0.0	489.781882445961	466.7532411437867	0.0	500.3202659228518	537.1292011369553	0.0	641.3868379091557	576.4100054155618	0.0	732.4471312903838	674.8880386553797	0.0	704.2920660988847	779.1660821534617	0.0	481.03480213384216	594.37508333358	0.0	453.2092292646605	731.0240738175913	0.0	456.0323886426887	755.2418783799919	0.0
168	5.612993039443156	588.262334957915	813.8119760707567	0.0	638.2486375142821	818.1635231156179	0.0	627.5551397238567	1016.8615947255561	0.0	644.7596800893008	1198.714737683197	0.0	614.1920915062249	1218.2661238464063	0.0	654.3617427820373	1225.5233551530368	0.0	647.6069422713822	1225.4204209685347	0.0	543.10964950036	821.1874013986798	0.0	539.0922516833273	998.2751172006033	0.0	533.593858820859	1191.147994378026	0.0	528.9147219074669	1214.073503714707	0.0	504.9887203581122	1232.1089550886973	0.0	538.3591279522839	1218.2071220927828	0.0	555.2615314661616	562.7104221997948	0.0	489.69157076351536	468.1796787773007	0.0	499.280185000562	543.1936868872181	0.0	645.6500564665113	577.4859081178639	0.0	733.5121629739765	675.1353153750955	0.0	697.9973715139018	774.9789327139042	0.0	486.4242088510678	593.7241099218026	0.0	460.3844808519525	729.4246914770547	0.0	461.47977817324136	754.2745473434439	0.0
169	5.646403712296984	591.6542744468935	813.3575526619948	0.0	641.2757570522642	818.8437180663601	0.0	630.1821986373342	1017.0680466955221	0.0	644.5887915228543	1199.185522358772	0.0	612.8374011410015	1218.1738238964413	0.0	652.4836394375023	1226.4236540912184	0.0	646.8091247157657	1225.4705464380686	0.0	546.2112670919558	820.6360645365041	0.0	542.2030948871169	993.310008224201	0.0	536.6639989847181	1187.246414335773	0.0	530.1498877885344	1200.943527444208	0.0	508.13472858240874	1221.1148562754938	0.0	539.8109173601326	1149.2808464284858	0.0	559.8261349971972	562.5609361610684	0.0	489.8918914374358	468.6380980880397	0.0	500.1299813421618	546.9781498112525	0.0	649.8333429037559	578.6311093300299	0.0	733.5723924981335	677.823727982714	0.0	692.9630899961751	770.605611914556	0.0	493.5899238049606	592.3541795983764	0.0	468.2552580574075	727.5767959646745	0.0	468.2349415563507	755.9506265702456	0.0
170	5.679814385150813	596.0828846413996	813.7298836319876	0.0	644.9601703698381	819.999689465978	0.0	632.5246117384125	1016.9350249549744	0.0	644.9329029266829	1199.2015035026227	0.0	611.5062469303311	1218.2835982802824	0.0	650.7116102516802	1227.4198483085804	0.0	646.3250241317155	1226.2644534871667	0.0	550.3432553037354	820.7118602348796	0.0	545.7029852473704	990.756058157082	0.0	539.6037710672456	1184.8444613671738	0.0	531.0894013574816	1195.9392134056093	0.0	511.9153871792367	1211.0552647338322	0.0	542.1985166561659	1048.5748147055774	0.0	563.5745282034961	562.640569158024	0.0	490.2236435836212	468.5014653268549	0.0	502.38079958141776	547.7452135050593	0.0	652.8988560839229	579.1449396662101	0.0	732.857087392921	682.2963961269843	0.0	689.0167061473608	765.7191886921332	0.0	501.17377534287976	590.0900952585336	0.0	476.8438993651337	725.151191258344	0.0	475.1345523658269	758.0520552292675	0.0
